<mxfile host="app.diagrams.net" modified="2024-02-12T15:14:53.367Z" agent="Mozilla/5.0 (Windows NT 10.0; Win64; x64) AppleWebKit/537.36 (KHTML, like Gecko) Chrome/121.0.0.0 Safari/537.36" etag="rRZgutMniTJrXLdG6zay" version="23.1.2" type="google">
  <diagram name="PÃ¡gina-1" id="y-wB33gMRaPvA0ZE4rfb">
    <mxGraphModel grid="1" page="1" gridSize="10" guides="1" tooltips="1" connect="1" arrows="1" fold="1" pageScale="1" pageWidth="827" pageHeight="1169" math="0" shadow="0">
      <root>
        <mxCell id="0" />
        <mxCell id="1" parent="0" />
        <mxCell id="_m0WcabML0QgBOEN8baz-3" style="edgeStyle=none;curved=1;rounded=0;orthogonalLoop=1;jettySize=auto;html=1;exitX=0.5;exitY=1;exitDx=0;exitDy=0;entryX=0.5;entryY=0;entryDx=0;entryDy=0;fontSize=12;startSize=8;endSize=8;" edge="1" parent="1" source="_m0WcabML0QgBOEN8baz-4" target="_m0WcabML0QgBOEN8baz-8">
          <mxGeometry relative="1" as="geometry" />
        </mxCell>
        <mxCell id="_m0WcabML0QgBOEN8baz-4" value="CALCULAR H&amp;nbsp;" style="rounded=1;whiteSpace=wrap;html=1;fontSize=12;glass=0;strokeWidth=1;shadow=0;" vertex="1" parent="1">
          <mxGeometry x="347.5" y="100" width="120" height="40" as="geometry" />
        </mxCell>
        <mxCell id="_m0WcabML0QgBOEN8baz-5" value="" style="edgeStyle=none;curved=1;rounded=0;orthogonalLoop=1;jettySize=auto;html=1;fontSize=12;startSize=8;endSize=8;" edge="1" parent="1" source="_m0WcabML0QgBOEN8baz-6" target="_m0WcabML0QgBOEN8baz-4">
          <mxGeometry relative="1" as="geometry" />
        </mxCell>
        <mxCell id="_m0WcabML0QgBOEN8baz-6" value="INICIO&amp;nbsp;" style="rounded=1;whiteSpace=wrap;html=1;fontSize=12;glass=0;strokeWidth=1;shadow=0;" vertex="1" parent="1">
          <mxGeometry x="352.5" y="20" width="110" height="40" as="geometry" />
        </mxCell>
        <mxCell id="_m0WcabML0QgBOEN8baz-7" style="edgeStyle=none;curved=1;rounded=0;orthogonalLoop=1;jettySize=auto;html=1;exitX=0.5;exitY=1;exitDx=0;exitDy=0;entryX=0.5;entryY=0;entryDx=0;entryDy=0;fontSize=12;startSize=8;endSize=8;" edge="1" parent="1" source="_m0WcabML0QgBOEN8baz-8" target="_m0WcabML0QgBOEN8baz-10">
          <mxGeometry relative="1" as="geometry" />
        </mxCell>
        <mxCell id="_m0WcabML0QgBOEN8baz-8" value="PREPROCESAMIENTO&amp;nbsp;&lt;br&gt;hash patron&lt;br&gt;hash ventana&amp;nbsp;" style="rounded=1;whiteSpace=wrap;html=1;fontSize=12;glass=0;strokeWidth=1;shadow=0;" vertex="1" parent="1">
          <mxGeometry x="340" y="170" width="135" height="50" as="geometry" />
        </mxCell>
        <mxCell id="_m0WcabML0QgBOEN8baz-9" value="HASH PATRON == HASH VENTANA" style="rhombus;whiteSpace=wrap;html=1;shadow=0;fontFamily=Helvetica;fontSize=12;align=center;strokeWidth=1;spacing=6;spacingTop=-4;" vertex="1" parent="1">
          <mxGeometry x="100" y="340" width="247.5" height="70" as="geometry" />
        </mxCell>
        <mxCell id="_m0WcabML0QgBOEN8baz-10" value="ITERACION SOBRE EL TEXTO" style="rounded=1;whiteSpace=wrap;html=1;fontSize=12;glass=0;strokeWidth=1;shadow=0;" vertex="1" parent="1">
          <mxGeometry x="340" y="250" width="135" height="50" as="geometry" />
        </mxCell>
        <mxCell id="_m0WcabML0QgBOEN8baz-11" value="SI" style="rounded=0;html=1;jettySize=auto;orthogonalLoop=1;fontSize=11;endArrow=block;endFill=0;endSize=8;strokeWidth=1;shadow=0;labelBackgroundColor=none;edgeStyle=orthogonalEdgeStyle;exitX=0.5;exitY=1;exitDx=0;exitDy=0;entryX=0.5;entryY=0;entryDx=0;entryDy=0;" edge="1" parent="1" source="_m0WcabML0QgBOEN8baz-9" target="_m0WcabML0QgBOEN8baz-17">
          <mxGeometry x="-0.6" y="16" relative="1" as="geometry">
            <mxPoint y="-1" as="offset" />
            <mxPoint x="172" y="450" as="sourcePoint" />
            <mxPoint x="172" y="490" as="targetPoint" />
          </mxGeometry>
        </mxCell>
        <mxCell id="_m0WcabML0QgBOEN8baz-12" value="No" style="edgeStyle=orthogonalEdgeStyle;rounded=0;html=1;jettySize=auto;orthogonalLoop=1;fontSize=11;endArrow=block;endFill=0;endSize=8;strokeWidth=1;shadow=0;labelBackgroundColor=none;" edge="1" parent="1" source="_m0WcabML0QgBOEN8baz-9" target="_m0WcabML0QgBOEN8baz-18">
          <mxGeometry x="-0.876" y="15" relative="1" as="geometry">
            <mxPoint as="offset" />
            <mxPoint x="370" y="385" as="sourcePoint" />
            <mxPoint x="545" y="384.97" as="targetPoint" />
            <Array as="points">
              <mxPoint x="420" y="375" />
              <mxPoint x="420" y="410" />
            </Array>
          </mxGeometry>
        </mxCell>
        <mxCell id="_m0WcabML0QgBOEN8baz-13" value="PATRON == VENTANA" style="rhombus;whiteSpace=wrap;html=1;shadow=0;fontFamily=Helvetica;fontSize=12;align=center;strokeWidth=1;spacing=6;spacingTop=-4;" vertex="1" parent="1">
          <mxGeometry x="100" y="540" width="247.5" height="70" as="geometry" />
        </mxCell>
        <mxCell id="_m0WcabML0QgBOEN8baz-14" value="SI" style="rounded=0;html=1;jettySize=auto;orthogonalLoop=1;fontSize=11;endArrow=block;endFill=0;endSize=8;strokeWidth=1;shadow=0;labelBackgroundColor=none;edgeStyle=orthogonalEdgeStyle;exitX=0.5;exitY=1;exitDx=0;exitDy=0;entryX=0.5;entryY=0;entryDx=0;entryDy=0;" edge="1" parent="1" source="_m0WcabML0QgBOEN8baz-13" target="_m0WcabML0QgBOEN8baz-22">
          <mxGeometry y="20" relative="1" as="geometry">
            <mxPoint as="offset" />
            <mxPoint x="172" y="670" as="sourcePoint" />
            <mxPoint x="200" y="670" as="targetPoint" />
            <Array as="points">
              <mxPoint x="224" y="610" />
              <mxPoint x="224" y="610" />
            </Array>
          </mxGeometry>
        </mxCell>
        <mxCell id="_m0WcabML0QgBOEN8baz-15" value="No" style="edgeStyle=orthogonalEdgeStyle;rounded=0;html=1;jettySize=auto;orthogonalLoop=1;fontSize=11;endArrow=block;endFill=0;endSize=8;strokeWidth=1;shadow=0;labelBackgroundColor=none;" edge="1" parent="1" source="_m0WcabML0QgBOEN8baz-13" target="_m0WcabML0QgBOEN8baz-18">
          <mxGeometry x="-0.8851" y="15" relative="1" as="geometry">
            <mxPoint as="offset" />
            <mxPoint x="296.25" y="634.5" as="sourcePoint" />
            <mxPoint x="346.25" y="634.5" as="targetPoint" />
            <Array as="points">
              <mxPoint x="420" y="575" />
              <mxPoint x="420" y="460" />
              <mxPoint x="604" y="460" />
            </Array>
          </mxGeometry>
        </mxCell>
        <mxCell id="_m0WcabML0QgBOEN8baz-16" style="edgeStyle=none;curved=1;rounded=0;orthogonalLoop=1;jettySize=auto;html=1;fontSize=12;startSize=8;endSize=8;" edge="1" parent="1" source="_m0WcabML0QgBOEN8baz-17" target="_m0WcabML0QgBOEN8baz-13">
          <mxGeometry relative="1" as="geometry" />
        </mxCell>
        <mxCell id="_m0WcabML0QgBOEN8baz-17" value="COMPARA TEXTO CON PATRON&amp;nbsp; CARACTER POR CARACTER" style="rounded=1;whiteSpace=wrap;html=1;fontSize=12;glass=0;strokeWidth=1;shadow=0;" vertex="1" parent="1">
          <mxGeometry x="118.75" y="460" width="210" height="50" as="geometry" />
        </mxCell>
        <mxCell id="_m0WcabML0QgBOEN8baz-18" value="AVANZA UNA POSICION (actualiza hash ventana)" style="rounded=1;whiteSpace=wrap;html=1;fontSize=12;glass=0;strokeWidth=1;shadow=0;" vertex="1" parent="1">
          <mxGeometry x="514" y="380" width="180" height="60" as="geometry" />
        </mxCell>
        <mxCell id="_m0WcabML0QgBOEN8baz-19" style="edgeStyle=none;curved=1;rounded=0;orthogonalLoop=1;jettySize=auto;html=1;entryX=0;entryY=0.5;entryDx=0;entryDy=0;fontSize=12;startSize=8;endSize=8;" edge="1" parent="1" source="_m0WcabML0QgBOEN8baz-18" target="_m0WcabML0QgBOEN8baz-18">
          <mxGeometry relative="1" as="geometry" />
        </mxCell>
        <mxCell id="_m0WcabML0QgBOEN8baz-20" style="edgeStyle=none;curved=1;rounded=0;orthogonalLoop=1;jettySize=auto;html=1;entryX=0.5;entryY=0;entryDx=0;entryDy=0;fontSize=12;startSize=8;endSize=8;" edge="1" parent="1" source="_m0WcabML0QgBOEN8baz-17" target="_m0WcabML0QgBOEN8baz-17">
          <mxGeometry relative="1" as="geometry" />
        </mxCell>
        <mxCell id="_m0WcabML0QgBOEN8baz-21" style="edgeStyle=none;curved=1;rounded=0;orthogonalLoop=1;jettySize=auto;html=1;exitX=1;exitY=0.5;exitDx=0;exitDy=0;fontSize=12;startSize=8;endSize=8;" edge="1" parent="1" source="_m0WcabML0QgBOEN8baz-22" target="_m0WcabML0QgBOEN8baz-23">
          <mxGeometry relative="1" as="geometry" />
        </mxCell>
        <mxCell id="_m0WcabML0QgBOEN8baz-22" value="PATRON ENCONTRADO&amp;nbsp;" style="rounded=1;whiteSpace=wrap;html=1;fontSize=12;glass=0;strokeWidth=1;shadow=0;" vertex="1" parent="1">
          <mxGeometry x="133.75" y="640" width="180" height="60" as="geometry" />
        </mxCell>
        <mxCell id="_m0WcabML0QgBOEN8baz-23" value="FIN" style="rounded=1;whiteSpace=wrap;html=1;fontSize=12;glass=0;strokeWidth=1;shadow=0;" vertex="1" parent="1">
          <mxGeometry x="440" y="650" width="67.5" height="40" as="geometry" />
        </mxCell>
        <mxCell id="_m0WcabML0QgBOEN8baz-24" value="" style="edgeStyle=segmentEdgeStyle;endArrow=classic;html=1;curved=0;rounded=0;endSize=8;startSize=8;sourcePerimeterSpacing=0;targetPerimeterSpacing=0;fontSize=12;entryX=1;entryY=0.5;entryDx=0;entryDy=0;exitX=0.5;exitY=0;exitDx=0;exitDy=0;" edge="1" parent="1" source="_m0WcabML0QgBOEN8baz-18" target="_m0WcabML0QgBOEN8baz-10">
          <mxGeometry width="140" relative="1" as="geometry">
            <mxPoint x="560" y="244.97" as="sourcePoint" />
            <mxPoint x="700" y="304.97" as="targetPoint" />
            <Array as="points">
              <mxPoint x="604" y="275" />
            </Array>
          </mxGeometry>
        </mxCell>
        <mxCell id="_m0WcabML0QgBOEN8baz-25" value="" style="edgeStyle=segmentEdgeStyle;endArrow=classic;html=1;curved=0;rounded=0;endSize=8;startSize=8;sourcePerimeterSpacing=0;targetPerimeterSpacing=0;fontSize=12;entryX=0.5;entryY=0;entryDx=0;entryDy=0;exitX=0;exitY=0.5;exitDx=0;exitDy=0;" edge="1" parent="1" source="_m0WcabML0QgBOEN8baz-10" target="_m0WcabML0QgBOEN8baz-9">
          <mxGeometry width="140" relative="1" as="geometry">
            <mxPoint x="248" y="140" as="sourcePoint" />
            <mxPoint x="118.75" y="140" as="targetPoint" />
            <Array as="points">
              <mxPoint x="224" y="275" />
            </Array>
          </mxGeometry>
        </mxCell>
      </root>
    </mxGraphModel>
  </diagram>
</mxfile>
